<?xml version="1.0" encoding="UTF-8" standalone="no"?>
<svg
   xmlns:dc="http://purl.org/dc/elements/1.1/"
   xmlns:cc="http://creativecommons.org/ns#"
   xmlns:rdf="http://www.w3.org/1999/02/22-rdf-syntax-ns#"
   xmlns:svg="http://www.w3.org/2000/svg"
   xmlns="http://www.w3.org/2000/svg"
   xmlns:xlink="http://www.w3.org/1999/xlink"
   xmlns:sodipodi="http://sodipodi.sourceforge.net/DTD/sodipodi-0.dtd"
   xmlns:inkscape="http://www.inkscape.org/namespaces/inkscape"
   version="1.1"
   id="svg4310"
   viewBox="0 0 446.91041 151.84425"
   height="42.853825mm"
   width="126.12805mm"
   sodipodi:docname="Logo_Original.svg"
   inkscape:version="0.92.0 r15299">
  <sodipodi:namedview
     pagecolor="#ffffff"
     bordercolor="#666666"
     borderopacity="1"
     objecttolerance="10"
     gridtolerance="10"
     guidetolerance="10"
     inkscape:pageopacity="0"
     inkscape:pageshadow="2"
     inkscape:window-width="1047"
     inkscape:window-height="616"
     id="namedview29"
     showgrid="false"
     inkscape:zoom="0.59995245"
     inkscape:cx="238.35222"
     inkscape:cy="80.983606"
     inkscape:window-x="2227"
     inkscape:window-y="73"
     inkscape:window-maximized="0"
     inkscape:current-layer="layer1" />
  <defs
     id="defs4312">
    <linearGradient
       gradientUnits="userSpaceOnUse"
       y2="-0.088347994"
       x2="111.19765"
       y1="2.7436531"
       x1="112.68858"
       id="linearGradient5096-8-0"
       xlink:href="#linearGradient5162"
       gradientTransform="matrix(-0.88004896,0,0,0.88004896,209.92249,505.90114)" />
    <linearGradient
       id="linearGradient5162">
      <stop
         style="stop-color:#29937e;stop-opacity:1"
         offset="0"
         id="stop5164" />
      <stop
         style="stop-color:#16a085;stop-opacity:1"
         offset="1"
         id="stop5166" />
    </linearGradient>
    <linearGradient
       gradientUnits="userSpaceOnUse"
       y2="-83.550636"
       x2="184.16522"
       y1="-88.969238"
       x1="178.47865"
       id="linearGradient4315-2"
       xlink:href="#linearGradient4305"
       gradientTransform="translate(-28.97703,615.56288)" />
    <linearGradient
       id="linearGradient4305">
      <stop
         id="stop4307"
         offset="0"
         style="stop-color:#000000;stop-opacity:0.29" />
      <stop
         id="stop4309"
         offset="1"
         style="stop-color:#000000;stop-opacity:0;" />
    </linearGradient>
    <linearGradient
       gradientTransform="translate(45.74198,534.85592)"
       gradientUnits="userSpaceOnUse"
       y2="-0.088347994"
       x2="111.19765"
       y1="2.7436531"
       x1="112.68858"
       id="linearGradient5096-9-7"
       xlink:href="#linearGradient5090" />
    <linearGradient
       id="linearGradient5090">
      <stop
         id="stop5092"
         offset="0"
         style="stop-color:#256792;stop-opacity:1" />
      <stop
         id="stop5094"
         offset="1"
         style="stop-color:#2980b9;stop-opacity:1" />
    </linearGradient>
    <linearGradient
       gradientTransform="translate(45.46984,534.99063)"
       gradientUnits="userSpaceOnUse"
       y2="-0.088347994"
       x2="111.19765"
       y1="2.7436531"
       x1="112.68858"
       id="linearGradient5096-4"
       xlink:href="#linearGradient5090" />
  </defs>
  <metadata
     id="metadata4315">
    <rdf:RDF>
      <cc:Work
         rdf:about="">
        <dc:format>image/svg+xml</dc:format>
        <dc:type
           rdf:resource="http://purl.org/dc/dcmitype/StillImage" />
        <dc:title />
      </cc:Work>
    </rdf:RDF>
  </metadata>
  <g
     transform="translate(-53.687642,-469.29722)"
     id="layer1">
    <flowRoot
       transform="translate(12.12699,561.90432)"
       style="font-style:normal;font-weight:normal;font-size:40px;line-height:125%;font-family:sans-serif;letter-spacing:0px;word-spacing:0px;display:inline;fill:#000000;fill-opacity:1;stroke:none;stroke-width:1px;stroke-linecap:butt;stroke-linejoin:miter;stroke-opacity:1"
       id="flowRoot5828-3-5-3-4-5"
       xml:space="preserve"><flowRegion
         id="flowRegion5830-3-1-3-2-1"><rect
           style="fill:#000000;fill-opacity:1"
           y="-42.146824"
           x="192.24283"
           height="104.95059"
           width="310.52048"
           id="rect5832-1-4-9-8-99" /></flowRegion><flowPara
         style="font-style:normal;font-variant:normal;font-weight:300;font-stretch:normal;font-size:50px;font-family:'Sansation Light';-inkscape-font-specification:'Sansation Light,  Light';fill:#000000;fill-opacity:1"
         id="flowPara5836-0-2-3-9-5"> DarwinSPL</flowPara></flowRoot>    <path
       id="path5031-83"
       d="m 137.58477,547.30805 30.16085,-37.80542 -5.83059,25.15482 z"
       style="display:inline;fill:url(#linearGradient5096-4);fill-opacity:1;fill-rule:evenodd;stroke:none;stroke-width:1px;stroke-linecap:butt;stroke-linejoin:miter;stroke-opacity:1" />
    <path
       id="path5031-6-7"
       d="m 137.85691,547.17334 30.16085,-37.80542 -5.83059,25.15482 z"
       style="display:inline;opacity:1;fill:url(#linearGradient5096-9-7);fill-opacity:1;fill-rule:evenodd;stroke:none;stroke-width:1px;stroke-linecap:butt;stroke-linejoin:miter;stroke-opacity:1" />
    <path
       id="path5031-6-3-6"
       d="m 165.55423,520.23475 c -1.1117,0.31283 -2.38699,0.73798 -3.70313,1.32617 -2.22766,0.99556 -3.7161,1.96461 -5.24218,3.375 -0.39688,0.3668 -0.75584,0.74711 -1.09375,1.13867 l -0.0606,0 -16.20117,20.30664 23.01367,-11.9668 z"
       style="display:inline;opacity:1;fill:url(#linearGradient4315-2);fill-opacity:1;fill-rule:evenodd;stroke:none;stroke-width:1px;stroke-linecap:butt;stroke-linejoin:miter;stroke-opacity:1" />
    <path
       id="path5028-5-9"
       d="m 67.86087,485.0824 19.05859,29.9082 c 0,0 12.26102,19.09136 20.5254,26.68165 3.46439,3.18182 11.875,7.625 11.875,7.625 l 0.88085,21.67382 c 0,0 1.30096,-1.34483 1.61133,-2.19921 3.94224,-12.86087 -0.64259,-4.23933 3.8418,-18.44532 0,0 8.21591,-0.39521 11.98437,-2.13672 l 17.75196,-22.25195 0.0605,0 c 0.33791,-0.39156 0.69687,-0.77187 1.09375,-1.13867 1.52608,-1.41039 3.01452,-2.37944 5.24219,-3.375 3.74496,-1.67365 7.22852,-2.08203 7.22852,-2.08203 -1.31649,-2.26835 -3.29756,-5.70724 -6.20899,-7.4668 0,0 -5.04006,-3.96018 -8.06836,-4.60742 -4.73419,-1.01184 -10.0212,-0.52998 -14.45312,1.41797 -4.02368,1.76852 -9.82227,8.79687 -9.82227,8.79687 L 67.86087,485.0824 Z"
       style="display:inline;opacity:1;fill:#1abc9c;fill-opacity:1;fill-rule:evenodd;stroke:none;stroke-width:1px;stroke-linecap:butt;stroke-linejoin:miter;stroke-opacity:1" />
    <path
       id="path5031-2-1"
       d="m 128.85684,516.74108 -26.54302,-33.27063 5.13121,22.13748 z"
       style="display:inline;fill:url(#linearGradient5096-8-0);fill-opacity:1;fill-rule:evenodd;stroke:none;stroke-width:1px;stroke-linecap:butt;stroke-linejoin:miter;stroke-opacity:1" />
    <path
       id="path5028-0"
       d="m 149.07099,606.96825 -0.64961,-22.66749 c 0,0 9.55705,-5.04708 13.49365,-8.6626 9.39081,-8.62484 23.32236,-30.31906 23.32236,-30.31906 l 21.65647,-33.984 -71.13319,36.816 c 0,0 -6.54431,-8.09137 -11.16141,-9.99529 -3.9582,-1.63222 -8.65134,-1.6113 -12.82729,-0.66636 -3.63519,0.82258 -9.82871,5.33083 -9.82871,5.33083 -3.30825,1.99939 -5.56149,3.63547 -9.32894,6.49694 0,0 6.23201,-0.86065 9.16235,0 2.66022,0.78131 5.21809,2.37097 6.99671,4.49788 2.04417,2.44446 3.66494,8.82918 3.66494,8.82918 0,0 2.20927,7.76342 4.49788,10.99482 2.70526,3.81968 6.28673,7.27997 10.49506,9.32895 4.20138,2.0456 13.79334,2.50373 13.79334,2.50373 5.09561,16.14227 1.53434,4.38384 6.01392,18.99765 0.35267,0.97083 1.83247,2.49882 1.83247,2.49882 z"
       style="display:inline;fill:#3498db;fill-opacity:0.99607843;fill-rule:evenodd;stroke:none;stroke-width:1px;stroke-linecap:butt;stroke-linejoin:miter;stroke-opacity:1" />
  </g>
</svg>
